<?xml version="1.0" encoding="utf-8"?>
<!-- Generator: Adobe Illustrator 27.7.0, SVG Export Plug-In . SVG Version: 6.00 Build 0)  -->
<svg version="1.1" id="Layer_1" xmlns="http://www.w3.org/2000/svg" xmlns:xlink="http://www.w3.org/1999/xlink" x="0px" y="0px"
	 viewBox="0 0 512 512" style="enable-background:new 0 0 512 512;" xml:space="preserve">
<g>
	<path d="M128,442.18h23.27c-0.02-38.57-31.25-69.8-69.82-69.82c-38.57,0.02-69.8,31.25-69.82,69.82
		c0.02,38.57,31.25,69.8,69.82,69.82c38.57-0.02,69.8-31.25,69.82-69.82H128h-23.27c-0.02,12.84-10.43,23.25-23.27,23.27
		c-12.84-0.02-23.25-10.43-23.27-23.27c0.02-12.84,10.43-23.25,23.27-23.27c12.84,0.02,23.25,10.43,23.27,23.27H128z"/>
	<path d="M360.73,69.82H384C383.98,31.25,352.75,0.02,314.18,0c-38.57,0.02-69.8,31.25-69.82,69.82
		c0.02,38.57,31.25,69.8,69.82,69.82c38.57-0.02,69.8-31.25,69.82-69.82H360.73h-23.27c-0.02,12.84-10.43,23.25-23.27,23.27
		c-12.84-0.02-23.25-10.43-23.27-23.27c0.02-12.84,10.43-23.25,23.27-23.27c12.84,0.02,23.25,10.43,23.27,23.27H360.73z"/>
	<path d="M360.73,442.18H384c-0.02-38.57-31.25-69.8-69.82-69.82c-38.57,0.02-69.8,31.25-69.82,69.82
		c0.02,38.57,31.25,69.8,69.82,69.82c38.57-0.02,69.8-31.25,69.82-69.82H360.73h-23.27c-0.02,12.84-10.43,23.25-23.27,23.27
		c-12.84-0.02-23.25-10.43-23.27-23.27c0.02-12.84,10.43-23.25,23.27-23.27c12.84,0.02,23.25,10.43,23.27,23.27H360.73z"/>
	<path d="M244.36,256h23.27c-0.02-38.57-31.25-69.8-69.82-69.82c-38.57,0.02-69.8,31.25-69.82,69.82
		c0.02,38.57,31.25,69.8,69.82,69.82c38.57-0.02,69.8-31.25,69.82-69.82H244.36h-23.27c-0.02,12.84-10.43,23.25-23.27,23.27
		c-12.84-0.02-23.25-10.43-23.27-23.27c0.02-12.84,10.43-23.25,23.27-23.27c12.84,0.02,23.25,10.43,23.27,23.27H244.36z"/>
	<path d="M477.09,256h23.27c-0.02-38.57-31.25-69.8-69.82-69.82c-38.57,0.02-69.8,31.25-69.82,69.82
		c0.02,38.57,31.25,69.8,69.82,69.82c38.57-0.02,69.8-31.25,69.82-69.82H477.09h-23.27c-0.02,12.84-10.43,23.25-23.27,23.27
		c-12.84-0.02-23.25-10.43-23.27-23.27c0.02-12.84,10.43-23.25,23.27-23.27c12.84,0.02,23.25,10.43,23.27,23.27H477.09z"/>
	<path d="M125.81,415.1l67.03-107.19c6.81-10.9,3.5-25.26-7.39-32.07c-10.9-6.81-25.26-3.5-32.07,7.39L86.34,390.42
		c-6.81,10.9-3.5,25.26,7.39,32.07S119,425.99,125.81,415.1"/>
	<path d="M242.25,228.84l66.96-107.15c6.81-10.9,3.5-25.26-7.4-32.07c-10.9-6.81-25.26-3.5-32.07,7.4l-66.96,107.15
		c-6.81,10.9-3.5,25.26,7.4,32.07C221.08,243.05,235.44,239.74,242.25,228.84"/>
	<path d="M202.87,308.02l66.93,107.05c6.81,10.9,21.17,14.21,32.07,7.4c10.9-6.81,14.21-21.17,7.4-32.07l-66.93-107.05
		c-6.81-10.9-21.17-14.21-32.07-7.4C199.37,282.76,196.06,297.12,202.87,308.02"/>
	<path d="M319.18,121.72L386.23,229c6.81,10.9,21.17,14.21,32.07,7.4c10.9-6.81,14.21-21.17,7.4-32.07L358.66,97.05
		c-6.81-10.9-21.17-14.21-32.07-7.4S312.37,110.82,319.18,121.72"/>
</g>
</svg>
